<?xml version="1.0" encoding="UTF-8"?>
<svg xmlns="http://www.w3.org/2000/svg" xmlns:xlink="http://www.w3.org/1999/xlink" width="50px" height="50px" viewBox="0 0 50 50" version="1.1">
<g id="surface1">
<path style=" stroke:none;fill-rule:nonzero;fill:rgb(0%,0%,0%);fill-opacity:1;" d="M 25 0 C 11.191406 0 0 11.191406 0 25 C 0 38.808594 11.191406 50 25 50 C 38.808594 50 50 38.808594 50 25 C 50 11.191406 38.808594 0 25 0 Z M 25 46.09375 C 13.351562 46.09375 3.90625 36.648438 3.90625 25 C 3.90625 13.351562 13.351562 3.90625 25 3.90625 C 36.648438 3.90625 46.09375 13.351562 46.09375 25 C 46.09375 36.648438 36.648438 46.09375 25 46.09375 Z M 25 46.09375 "/>
<path style=" stroke:none;fill-rule:nonzero;fill:rgb(0%,0%,0%);fill-opacity:1;" d="M 21.914062 21.921875 L 22.59375 19.203125 L 14.097656 14.105469 L 19.195312 22.601562 Z M 30.789062 22.574219 L 35.851562 14.0625 L 27.390625 19.179688 L 28.078125 21.910156 Z M 28.09375 28.070312 L 27.425781 30.796875 L 35.9375 35.859375 L 30.808594 27.382812 Z M 19.195312 27.410156 L 14.097656 35.902344 L 22.613281 30.792969 L 21.925781 28.089844 Z M 19.195312 27.410156 "/>
<path style=" stroke:none;fill-rule:nonzero;fill:rgb(0%,0%,0%);fill-opacity:1;" d="M 25 12.5 L 22.5 22.5 L 12.5 25 L 22.507812 27.503906 L 25.046875 37.5 L 27.511719 27.484375 L 37.5 24.953125 L 27.496094 22.488281 Z M 25 26.5625 C 24.136719 26.5625 23.4375 25.863281 23.4375 25 C 23.4375 24.136719 24.136719 23.4375 25 23.4375 C 25.863281 23.4375 26.5625 24.136719 26.5625 25 C 26.5625 25.863281 25.863281 26.5625 25 26.5625 Z M 25 26.5625 "/>
</g>
</svg>
